<?xml version="1.0"?>
<svg xmlns="http://www.w3.org/2000/svg" xmlns:xlink="http://www.w3.org/1999/xlink" x="0px" y="0px" width="198px" height="43.512px"
	 viewBox="0 0 198 43.512" enable-background="new 0 0 198 43.512" xml:space="preserve">
<switch>
	<g>
		<g>
			<linearGradient id="SVGID_1_" gradientUnits="userSpaceOnUse" x1="-6.6162" y1="21.7559" x2="40.694" y2="21.7559">
				<stop  offset="0.3" style="stop-color:#6EAB24"/>
				<stop  offset="0.7" style="stop-color:#006150"/>
			</linearGradient>
			<path fill="url(#SVGID_1_)" d="M7.953,28.621c-0.442-0.764-0.179-1.729,0.581-2.166c0.758-0.438,1.729-0.18,2.167,0.58
				c0.438,0.758,0.179,1.73-0.581,2.168c-0.251,0.145-0.525,0.213-0.794,0.213C8.779,29.416,8.248,29.133,7.953,28.621
				 M13.431,23.906c-0.673-1.221-3.261-0.818-2.424,0.926c-1.023-0.572-2.31-0.607-3.398,0.02c-1.643,0.949-2.204,3.053-1.258,4.695
				c0.949,1.639,3.051,2.205,4.693,1.256c1.087-0.627,1.702-1.76,1.717-2.93c1.091,1.594,2.735-0.445,2.016-1.637
				c0.676-0.502,1.978-1.33,3.191-2.07c0.056-0.887,0.093-1.752,0.113-2.651C16.632,22.334,14.481,23.449,13.431,23.906
				 M10.171,3.836C6.813,5.774,3.82,8.007,1.242,10.429C0.434,13.874,0.004,17.575,0,21.453c-0.002,3.201,0.331,6.305,0.889,9.221
				c0.951-0.594,1.939-1.521,2.859-2.709c-0.169-1.543-0.025-3.371,0.503-5.338c0.487-1.822,1.189-3.442,2.023-4.664
				c2.259-0.648,7.228,1.197,11.806,3.547c0.012-0.493,0.016-0.957,0.016-1.447c0-0.399-0.005-0.883-0.014-1.401
				c-3.859-2.614-7.285-5.574-7.799-7.644c0.641-1.332,1.693-2.75,3.027-4.084c1.441-1.44,2.952-2.479,4.371-3.104
				C18.252,2.438,18.56,1.118,18.598,0C15.793,0.975,12.943,2.235,10.171,3.836 M32.746,28.621
				c-0.294,0.512-0.825,0.795-1.372,0.795c-0.269,0-0.543-0.068-0.794-0.213c-0.759-0.438-1.019-1.41-0.581-2.168
				c0.438-0.76,1.408-1.018,2.167-0.58C32.925,26.893,33.188,27.857,32.746,28.621 M27.269,23.906
				c-1.051-0.457-3.202-1.572-4.65-2.392c0.02,0.899,0.057,1.765,0.113,2.651c1.212,0.74,2.515,1.568,3.191,2.07
				c-0.72,1.191,0.923,3.23,2.015,1.637c0.016,1.17,0.63,2.303,1.717,2.93c1.643,0.949,3.744,0.383,4.694-1.256
				c0.946-1.643,0.384-3.746-1.258-4.695c-1.088-0.627-2.375-0.592-3.399-0.02C30.53,23.088,27.941,22.686,27.269,23.906
				 M30.528,3.836C27.754,2.235,24.905,0.975,22.101,0c0.039,1.118,0.347,2.438,0.917,3.829c1.419,0.625,2.93,1.664,4.371,3.104
				c1.333,1.334,2.386,2.752,3.027,4.084c-0.515,2.069-3.94,5.029-7.8,7.644c-0.009,0.519-0.014,1.002-0.014,1.401
				c0,0.49,0.004,0.954,0.016,1.447c4.58-2.35,9.548-4.195,11.806-3.547c0.834,1.222,1.537,2.842,2.024,4.664
				c0.528,1.967,0.672,3.795,0.502,5.338c0.92,1.188,1.909,2.115,2.859,2.709c0.558-2.916,0.89-6.02,0.889-9.221
				c-0.003-3.878-0.433-7.579-1.242-11.024C36.879,8.007,33.885,5.774,30.528,3.836 M18.763,8.714c0-0.875,0.704-1.586,1.586-1.586
				c0.884,0,1.588,0.711,1.588,1.587s-0.711,1.586-1.588,1.586C19.472,10.301,18.763,9.591,18.763,8.714 M16.914,8.714
				c0,1.257,0.674,2.355,1.68,2.954c-1.928,0.147-0.983,2.59,0.409,2.564c0.147,1.28,0.224,4.218,0.224,5.835
				c0,5.995-0.827,13.329-2.888,15.313c-1.474,0.113-3.228-0.09-5.05-0.578c-1.968-0.525-3.623-1.316-4.873-2.232
				c-1.491,0.201-2.788,0.594-3.776,1.121c2.246,1.943,4.763,3.779,7.536,5.379c3.265,1.885,6.86,3.428,10.172,4.441
				c3.278-1.014,6.909-2.557,10.174-4.441c2.773-1.6,5.289-3.436,7.537-5.379c-0.989-0.527-2.286-0.92-3.776-1.121
				c-1.25,0.918-2.906,1.707-4.873,2.234c-1.823,0.486-3.577,0.689-5.05,0.578c-2.062-1.986-2.888-9.32-2.888-15.315
				c0-1.616,0.076-4.553,0.224-5.835c1.391,0.025,2.337-2.417,0.409-2.564c1.005-0.598,1.679-1.697,1.679-2.953
				c0-1.896-1.539-3.435-3.435-3.436C18.454,5.28,16.914,6.818,16.914,8.714"/>
			<g>
				<path fill="#006150" d="M65.254,21.593v-0.048c0-3.833-2.795-6.967-6.654-6.967c-3.855,0-6.604,3.084-6.604,6.917v0.05
					c0,3.832,2.796,6.965,6.656,6.965C62.505,28.51,65.254,25.424,65.254,21.593 M50.021,21.593v-0.048
					c0-4.652,3.494-8.728,8.631-8.728c5.132,0,8.578,4.026,8.578,8.678c0.027,0.024,0.027,0.024,0,0.05
					c0,4.65-3.494,8.725-8.63,8.725C53.466,30.27,50.021,26.246,50.021,21.593"/>
				<polygon fill="#006150" points="69.381,13.107 71.286,13.107 71.286,28.221 80.781,28.221 80.781,29.98 69.381,29.98 				"/>
				<path fill="#006150" d="M88.888,28.221c4.27,0,6.991-2.893,6.991-6.628v-0.048c0-3.737-2.722-6.679-6.991-6.679h-3.953v13.354
					H88.888z M83.03,13.107h5.857c5.303,0,8.967,3.64,8.967,8.388v0.05c0,4.748-3.664,8.436-8.967,8.436H83.03V13.107z"/>
				<polygon fill="#006150" points="100.139,13.107 104.141,13.107 108.575,20.244 113.013,13.107 117.012,13.107 117.012,29.98 
					113.327,29.98 113.327,18.965 108.575,26.172 108.48,26.172 103.778,19.039 103.778,29.98 100.139,29.98 				"/>
				<path fill="#006150" d="M119.272,22.75v-9.643h3.713v9.545c0,2.748,1.373,4.17,3.64,4.17c2.266,0,3.639-1.373,3.639-4.049
					v-9.666h3.715v9.521c0,5.109-2.869,7.619-7.4,7.619C122.045,30.248,119.272,27.717,119.272,22.75"/>
				<polygon fill="#006150" points="141.01,16.529 135.876,16.529 135.876,13.107 149.856,13.107 149.856,16.529 144.72,16.529 
					144.72,29.98 141.01,29.98 				"/>
				<path fill="#006150" d="M151.753,22.75v-9.643h3.716v9.545c0,2.748,1.372,4.17,3.64,4.17c2.264,0,3.638-1.373,3.638-4.049
					v-9.666h3.712v9.521c0,5.109-2.867,7.619-7.399,7.619C154.529,30.248,151.753,27.717,151.753,22.75"/>
				<path fill="#006150" d="M177.445,22.918l-2.24-5.472l-2.243,5.472H177.445z M173.539,12.986h3.425l7.232,16.994h-3.881
					l-1.545-3.785h-7.135l-1.541,3.785h-3.786L173.539,12.986z"/>
				<polygon fill="#006150" points="185.876,13.107 189.586,13.107 189.586,26.605 198,26.605 198,29.98 185.876,29.98 				"/>
			</g>
		</g>
	</g>
</switch>
</svg>