<svg height="157.898973" viewBox="0 0 935 233" width="633.316341" xmlns="http://www.w3.org/2000/svg"><g fill="#f91600" stroke-width="2.23964" transform="matrix(1.0254512 0 0 .97518048 -49.21249929533 -275.665770711)"><g stroke-width="4.379944" transform="matrix(2.0271665 0 0 2.1332678 313.51283055386 -172.19915437457)"><path d="m18.260884 292.90579-16.8550655-40.21852h11.0142015l10.513555 26.70109 10.179792-26.70109h10.513556l-16.35442 40.21852z"/><path d="m64.828737 293.82364q-4.839573 0-8.510974-1.8357-3.587959-1.8357-6.007746-4.83957-2.336346-3.00387-3.587959-6.75872-1.168173-3.83828-1.168173-7.76 0-6.09119 2.670109-11.26452 2.75355-5.17334 7.25936-7.42625 4.50581-2.2529 9.345383-2.2529 6.758714 0 11.431406 3.6714 4.58925 3.58796 6.174627 8.51097 1.668819 5.17334 1.668819 8.7613 0 6.09119-2.75355 11.34796-1.501937 3.00388-3.58796 4.92302-2.086023 1.8357-4.338928 3.00387-2.252904 1.08473-4.505809 1.50194-2.252905.4172-4.088605.4172zm0-8.92818q2.670109.16689 4.505809-1.25161 1.835701-1.50194 2.836992-3.50452 1.084732-2.00258 1.501936-4.0886.417205-2.16947.250323-3.42108 0-3.42108-1.001291-5.75742-1.001291-2.41979-2.419787-3.83829-1.418495-1.50193-3.003873-2.08602-1.585377-.58409-2.670109-.50064-3.504519 0-5.840864 2.50322-1.168173 1.25162-1.835701 2.58667-.584086 1.33506-.91785 2.67011-.333763 1.25161-.417204 2.41979-.08344 1.16817-.08344 2.00258 0 2.58667.584086 4.83957.584087 2.16947 1.668819 3.83828 1.168172 1.66882 2.836991 2.67011 1.752259.91785 4.005163.91785z"/><path d="m107.425 293.82364q-4.17205 0-7.34281-1.75226-3.170751-1.75226-5.340215-4.67269-2.169464-2.92043-3.337637-6.75871-1.084732-3.83828-1.084732-8.01033 0-6.42495 2.586669-11.26452 1.418495-2.837 3.504518-4.6727 2.169464-1.91914 4.422377-3.00387 2.33634-1.16817 4.58925-1.58538 2.2529-.50064 4.00516-.4172 2.92043 0 6.84215 1.16817v-15.60345h10.26324v55.65509h-9.42883l-.4172-3.08731q-1.4185 1.58538-3.75484 2.83699-2.33635 1.16817-5.5071 1.16817zm2.08602-8.84473q1.91914 0 3.92172-1.0013 2.00259-1.08473 2.83699-2.50322v-19.85894q-3.25419-1.16817-5.59054-1.16817-3.25419 0-5.34022 1.50193-2.08602 1.4185-3.25419 3.42108-1.16817 2.00258-1.50194 4.00516-.33376 2.00259-.16688 3.00388 0 2.50322.50065 4.83957.58408 2.2529 1.66881 4.00516 1.16818 1.66882 2.837 2.75355 1.75225 1.0013 4.0886 1.0013z"/><path d="m146.90462 293.82364q-2.58667 0-5.00646-.91785-2.33634-.83441-4.17204-2.41978-1.8357-1.66882-3.00388-4.00517-1.08473-2.41979-1.08473-5.42366-.16688-3.25419 1.25162-5.59054 1.50193-2.41979 3.6714-4.00516 2.2529-1.66882 4.75613-2.50323 2.58667-.91785 4.67269-1.16817.58409-.0834 2.67011-.33377 2.08602-.25032 5.67398-.66753v-.58408q0-3.33764-1.75226-4.75613-1.66882-1.4185-4.67269-1.4185-3.00387 0-5.75742 1.33506-2.75355 1.25161-4.17205 2.50322l-3.42108-7.25936q1.75226-1.75226 6.5084-3.33763 2.41978-.83441 4.50581-1.25162 2.16946-.4172 4.0886-.33376 3.83828-.0834 6.67527 1.16817 2.92044 1.16817 4.75614 3.33764 1.91914 2.08602 2.83699 4.92301.91785 2.83699.83441 5.92431v25.86668h-9.51227l-.4172-3.00387q-1.66882 1.8357-4.25549 2.92043-2.58667 1.00129-5.67398 1.00129zm2.41978-8.59441q2.00259 0 3.83829-.83441 1.91914-.83441 3.25419-2.08602v-8.17721q-2.41978.25032-4.17204.50064-1.66882.16688-2.58667.33376-3.33764.66753-4.67269 2.33635-1.25162 1.58538-1.25162 3.50452 0 2.00258 1.4185 3.25419 1.50194 1.16818 4.17204 1.16818z"/><path d="m193.15435 293.82364q-3.6714 0-7.09248-1.25161-3.33764-1.25162-5.9243-3.83828-2.58667-2.58667-4.17205-6.5084-1.50194-3.92172-1.50194-9.26194 0-7.50968 3.00388-12.68302 3.08731-5.08989 7.42624-6.84215 4.33893-1.75226 8.01033-1.75226 3.75484 0 6.50839 1.08473 2.75355 1.08473 4.58925 2.58667 1.91914 1.50194 3.00387 3.17075 1.16817 1.58538 1.66882 2.58667l-7.67656 5.17334q-1.25162-2.16946-3.17076-4.00516-1.8357-1.91915-4.83957-1.91915-3.33764 0-5.84087 3.00388-2.41978 2.92043-2.41978 9.1785 0 6.00774 2.50322 9.1785 2.50323 3.17075 7.25936 3.17075 4.25549 0 6.75872-1.25161 2.58667-1.33505 3.92172-2.67011l3.00387 8.51097q-2.2529 1.66882-6.17462 3.00388-3.83829 1.33505-8.84474 1.33505z"/><path d="m231.87355 293.82364q-4.83957 0-8.51097-1.8357-3.58796-1.8357-6.00775-4.83957-2.33634-3.00387-3.58796-6.75872-1.16817-3.83828-1.16817-7.76 0-6.09119 2.67011-11.26452 2.75355-5.17334 7.25936-7.42625 4.50581-2.2529 9.34538-2.2529 6.75872 0 11.43141 3.6714 4.58925 3.58796 6.17463 8.51097 1.66881 5.17334 1.66881 8.7613 0 6.09119-2.75355 11.34796-1.50193 3.00388-3.58796 4.92302-2.08602 1.8357-4.33892 3.00387-2.25291 1.08473-4.50581 1.50194-2.25291.4172-4.08861.4172zm0-8.92818q2.67011.16689 4.50581-1.25161 1.8357-1.50194 2.83699-3.50452 1.08473-2.00258 1.50194-4.0886.4172-2.16947.25032-3.42108 0-3.42108-1.00129-5.75742-1.00129-2.41979-2.41979-3.83829-1.41849-1.50193-3.00387-2.08602-1.58538-.58409-2.67011-.50064-3.50452 0-5.84086 2.50322-1.16818 1.25162-1.8357 2.58667-.58409 1.33506-.91785 2.67011-.33377 1.25161-.41721 2.41979-.0834 1.16817-.0834 2.00258 0 2.58667.58409 4.83957.58408 2.16947 1.66882 3.83828 1.16817 1.66882 2.83699 2.67011 1.75226.91785 4.00516.91785z"/><path d="m257.49317 292.90579v-40.21852h9.51227l.4172 3.00387q1.8357-1.66882 4.50581-2.83699 2.75355-1.16817 5.5071-1.16817 2.83699 0 5.59054.91785 2.83699.83441 5.25678 3.00387 2.75355-1.66882 6.00775-2.75355 3.33763-1.16817 7.09247-1.16817 6.84216-.0834 10.51356 3.00387 3.75484 3.17076 4.50581 7.09248.83441 3.83828.83441 7.00904v24.11442h-10.26323v-23.61378q0-4.00516-1.50194-6.42495-1.50194-2.50323-5.59054-2.50323-2.00258 0-4.33893 1.08474-2.25291 1.08473-3.58796 2.16946.50065 3.00387.50065 5.00646v24.2813h-10.34668v-23.61378q0-4.50581-1.66882-6.67527-1.66881-2.25291-4.67269-2.25291-2.33634 0-4.42237 1.25162-2.08602 1.25161-3.50452 2.67011v28.62023z"/></g><path d="m-520.22499 145.4377c-68.58371 9.77176-121.68078 73.95451-123.00821 152.12865 94.91102 17.54476 166.59206 81.50542 166.59206 195.65744 0 110.15447-91.14997 199.21081-205.08743 199.21081-113.27376.22209-205.08745-99.71645-205.08745-229.19237 0-178.55684 157.9638-326.68796 357.74152-322.02416-46.68117-20.87605-98.22958-32.64659-152.65407-32.64659-205.75116 0-372.78573 167.45257-372.78573 374.21429s167.03457 374.21428 372.78573 374.21428c205.75115 0 372.78569-167.45256 372.78569-374.21428 0-148.57529-86.28274-276.94078-211.28211-337.34807z" stroke-width="4.964415" transform="matrix(.3056251 0 0 .31333376 370.37598 252.34711)"/></g></svg>