<?xml version="1.0" encoding="utf-8"?>
<!-- Generator: Adobe Illustrator 22.0.1, SVG Export Plug-In . SVG Version: 6.00 Build 0)  -->
<svg version="1.1" id="Layer_1" xmlns="http://www.w3.org/2000/svg" xmlns:xlink="http://www.w3.org/1999/xlink" width="294.5" height="176.7"
	 viewBox="0 0 294.5 176.7" enable-background="new 0 0 294.5 176.7" xml:space="preserve">
<g>
	<rect x="147.5" y="14.4" fill="#9AA6CD" width="1.1" height="69.5"/>
	<g>
		<path fill="#9AA6CD" d="M91.1,116.8c0,0,30.7-19.2,43.3-12.8c13,6.6,4.7,24.2,8.2,30.8c4.3,8.1,29.3-5.7,29.3-5.7
			s-25.8,24.2-36.1,14.3c-7.1-6.8,0-27.1-6.8-33.4c-7.1-6.5-44.8,12.2-44.8,12.2L91.1,116.8"/>
		<path fill="#004990" d="M133.4,13.3c0,0-50.7-18.1-95,60.7c-18.1,42.9,0.5,54.9,10.4,57.8c9.5,2.8,19.7,0.3,38.7-8.2
			c11-5,24.8-10.3,31-10.8c4.9-0.4,8.2,0.4,8.9,5.1c0.7,4.7,0.7,20.3,1.8,24.8c1.7,6.9,7.4,9.3,15.8,6.7
			c8.4-2.5,23.7-10.9,23.7-10.9s-30.6,27.6-44.4,18.1c-9-6.2-1.9-30-7.8-34.5c-10.6-8.1-54.2,29.2-82.1,12
			C23,127.3,21.9,112.4,25,95.8c2.8-15.1,9.9-35.4,38.9-63.5C99.6-2.4,133.4,13.3,133.4,13.3"/>
		<path fill="#9AA6CD" d="M126.6,7.5c0,0-53.1-13.3-96.3,64.2c-19.9,41.8-6.9,62.3,4,66.9c12,5.1,23.6,4.1,41.4-1.8
			c8.8-2.9,30.3-12.7,33.6-12c3.3,0.7,5.4,0.8,5.8,6.7c0.3,4.7-0.2,21.9,2.7,26.1c3.8,5.5,8.5,8.4,17,5.8
			c8.4-2.5,24.1-11.1,24.1-11.1s-31.4,26.3-44.9,16.3c-9.7-7.1-1.7-31.5-8-35.4c-10-6.1-57.4,37.1-85.5,8.5
			C-0.3,120.6,9,76.6,50.2,36.3C91.9-4.5,126.6,7.5,126.6,7.5"/>
		<path fill-rule="evenodd" clip-rule="evenodd" fill="#9AA6CD" d="M39.6,78.4c12.7-31.5,44.4-60,70.8-63.7
			c26.4-3.6,37.4,19,24.7,50.5c-12.7,31.5-44.4,60-70.8,63.7C37.9,132.6,26.8,110,39.6,78.4 M47,74.7c12-24.7,39.9-46.1,62.2-47.9
			c22.3-1.7,30.7,16.9,18.7,41.6c-12,24.7-39.9,46.1-62.2,47.9C43.4,118.1,35,99.4,47,74.7"/>
		<path fill="#004990" d="M156.1,58.7h2c0,2.2,0.1,3.6,0.2,3.9c0.1,0.4,0.6,0.9,1.3,1.5c0.7,0.6,1.7,1.1,2.9,1.5
			c1.2,0.4,2.4,0.6,3.6,0.6c2.1,0,3.8-0.6,5.1-1.7c1.3-1.1,1.9-2.5,1.9-4.2c0-1.6-0.4-2.8-1.3-3.6c-0.9-0.8-2.5-1.4-4.9-1.8
			c-3.6-0.5-6-1.1-7.2-1.7c-1.2-0.6-2.2-1.5-2.9-2.7c-0.7-1.2-1.1-2.7-1.1-4.4c0-2.8,1-5.2,3-7.2c2-2,5.2-3,9.6-3
			c1.7,0,3.3,0.1,4.6,0.4c1.3,0.3,2.7,0.7,4,1.3l0.2,0.5c-0.2,1-0.4,1.8-0.5,2.6c-0.1,0.8-0.2,2.1-0.3,4h-2
			c-0.1-2.3-0.2-3.6-0.3-3.9c-0.3-0.5-1-1-2.2-1.6c-1.2-0.6-2.5-0.8-4-0.8c-2.1,0-3.7,0.5-4.8,1.5c-1.1,1-1.7,2.3-1.7,3.9
			c0,1,0.2,1.8,0.7,2.5c0.5,0.7,1.1,1.2,1.9,1.6c0.8,0.3,2.7,0.7,5.4,1.2c2.5,0.4,4.2,0.8,5.1,1.1c1.5,0.6,2.6,1.5,3.3,2.7
			c0.8,1.2,1.1,2.7,1.1,4.6c0,3.2-1.2,5.9-3.7,8c-2.4,2.1-5.8,3.2-10,3.2c-1.9,0-3.6-0.2-5.2-0.5c-1.5-0.4-3.1-1-4.8-1.8
			c0.3-1.1,0.5-2,0.5-2.9C156,62.4,156.1,60.8,156.1,58.7"/>
		<path fill-rule="evenodd" clip-rule="evenodd" fill="#004990" d="M195.2,44.3l-4.8,11.6c1.4,0.1,2.9,0.1,4.6,0.1
			c1.8,0,3.4,0,5-0.1L195.2,44.3 M180.4,66.3c1.4-0.1,2.3-0.2,2.6-0.4c0.2-0.2,0.6-0.7,1.1-1.7c0.9-2,2.1-4.7,3.5-8.2l8-19.7h3.3
			l10.3,24.4c1.3,3.2,2.1,4.9,2.4,5.2c0.3,0.3,1.3,0.5,2.9,0.6v1.9c-2.5-0.1-4.8-0.2-7-0.2c-2.6,0-5.1,0.1-7.5,0.2v-1.9
			c1.8-0.1,2.8-0.2,3.1-0.3c0.3-0.1,0.4-0.4,0.4-0.7c0-0.3-0.3-1.3-1-2.9l-1.5-3.9c-1.9,0-4,0-6.3,0c-2,0-3.8,0-5.5,0l-1,2.6
			c-0.3,0.7-0.6,1.8-1,3.2c-0.1,0.3-0.1,0.6-0.1,0.9c0,0.3,0.1,0.6,0.4,0.7c0.3,0.1,1.4,0.3,3.2,0.4v1.9c-1.5-0.1-3.3-0.2-5.5-0.2
			c-2.1,0-3.8,0.1-5,0.2V66.3z"/>
		<path fill-rule="evenodd" clip-rule="evenodd" fill="#004990" d="M232.7,66.1c3,0,5.5-1.1,7.3-3.3c1.8-2.2,2.7-5.6,2.7-10.2
			c0-4.8-1-8.4-3.1-11c-1.7-2.1-4.3-3.1-7.7-3.1c-3.3,0-5.8,1.1-7.6,3.2c-1.8,2.1-2.7,5.5-2.7,9.9c0,3.2,0.5,6,1.5,8.2
			c1,2.2,2.2,3.8,3.7,4.8C228.3,65.6,230.2,66.1,232.7,66.1 M224.8,74.4l-1.1-1l1.5-1.2c1.7-1.3,3.5-2.5,5.5-3.3
			c-4.9,0-8.8-1.4-11.7-4.3c-2.9-2.9-4.4-6.8-4.4-11.8c0-3.5,0.7-6.5,2.2-8.9c1.4-2.5,3.4-4.4,6-5.7c2.5-1.3,5.8-2,9.8-2
			c3.8,0,7,0.6,9.4,1.9c2.5,1.3,4.3,3,5.6,5.3c1.3,2.2,2,5,2,8.3c0,3.5-0.7,6.5-2.1,9.1c-1.4,2.6-3.3,4.5-5.7,5.9
			c-2.4,1.3-5.7,2.1-9.9,2.4c1.1,0.2,2.2,0.4,3.2,0.7l5.9,2c1.8,0.6,3.2,1,4.2,1.2c0.6,0.1,1.2,0.2,1.7,0.2c0.6,0,1.2-0.1,1.8-0.2
			c0.6-0.1,1.4-0.5,2.5-1V73l-2.6,1.8c-1.3,0.9-2.1,1.4-2.6,1.6c-0.3,0.1-0.7,0.2-1.1,0.2c-1,0-2.2-0.1-3.4-0.4
			c-1.3-0.3-3.4-0.9-6.2-1.9c-2.1-0.7-3.6-1.2-4.4-1.3c-0.8-0.2-1.5-0.3-2-0.3c-0.7,0-1.3,0.1-1.8,0.3
			C226.4,73.3,225.7,73.7,224.8,74.4"/>
		<path fill-rule="evenodd" clip-rule="evenodd" fill="#004990" d="M265.4,44.3l-4.8,11.6c1.4,0.1,2.9,0.1,4.6,0.1
			c1.8,0,3.4,0,5-0.1L265.4,44.3 M250.6,66.3c1.4-0.1,2.3-0.2,2.6-0.4c0.2-0.2,0.6-0.7,1.1-1.7c0.9-2,2.1-4.7,3.5-8.2l8-19.7h3.3
			l10.3,24.4c1.3,3.2,2.1,4.9,2.4,5.2c0.3,0.3,1.3,0.5,2.9,0.6v1.9c-2.5-0.1-4.8-0.2-7-0.2c-2.6,0-5.1,0.1-7.5,0.2v-1.9
			c1.8-0.1,2.8-0.2,3.1-0.3c0.3-0.1,0.4-0.4,0.4-0.7c0-0.3-0.3-1.3-1-2.9l-1.5-3.9c-1.9,0-4,0-6.3,0c-2,0-3.8,0-5.5,0l-1,2.6
			c-0.3,0.7-0.6,1.8-1,3.2c-0.1,0.3-0.1,0.6-0.1,0.9c0,0.3,0.1,0.6,0.4,0.7c0.3,0.1,1.4,0.3,3.2,0.4v1.9c-1.5-0.1-3.3-0.2-5.5-0.2
			c-2.1,0-3.8,0.1-5,0.2V66.3z"/>
		<path fill="#004990" d="M158.2,80.3c0-0.4-0.1-1.2-1.2-1.2c-0.8,0-1.2,0.5-1.2,1.1c0,0.7,0.5,1,0.9,1.2c0.5,0.2,0.8,0.4,0.8,0.8
			c0,0.2-0.1,0.5-0.5,0.5c-0.5,0-0.6-0.4-0.6-0.8l-0.8,0.1c0,0.4,0.1,1.4,1.3,1.4c0.9,0,1.3-0.6,1.3-1.2c0-0.6-0.4-0.9-1.1-1.3
			c-0.4-0.2-0.7-0.3-0.7-0.7c0-0.3,0.2-0.4,0.4-0.4c0.4,0,0.5,0.4,0.5,0.6L158.2,80.3"/>
		<path fill-rule="evenodd" clip-rule="evenodd" fill="#004990" d="M160.1,81.3c0-0.3,0-0.8,0.1-1.1c0.1-0.4,0.4-0.5,0.6-0.5
			c0.7,0,0.7,0.9,0.7,1.3c0,0.9-0.1,1.1-0.1,1.2c-0.1,0.2-0.3,0.3-0.5,0.3C160.1,82.6,160.1,81.7,160.1,81.3 M160.8,79.1
			c-1.2,0-1.5,1-1.5,2c0,1.3,0.4,2.1,1.5,2.1c1.5,0,1.5-1.5,1.5-2C162.3,80.3,162.1,79.1,160.8,79.1"/>
		<path fill="#004990" d="M163.5,79.2v2.5c0,0.3,0,0.7,0.2,1c0.3,0.6,0.9,0.6,1.2,0.6c0.9,0,1.3-0.5,1.3-1.5v-2.6h-0.8v2.6
			c0,0.4,0,0.9-0.6,0.9c-0.6,0-0.6-0.5-0.6-0.9v-2.5H163.5"/>
		<polygon fill="#004990" points="167.2,79.2 167.2,79.8 168.1,79.8 168.1,83.2 168.9,83.2 168.9,79.8 169.8,79.8 169.8,79.2 		"/>
		<polygon fill="#004990" points="170.9,79.2 170.9,83.2 171.6,83.2 171.6,81.4 172.7,81.4 172.7,83.2 173.5,83.2 173.5,79.2 
			172.7,79.2 172.7,80.7 171.6,80.7 171.6,79.2 		"/>
		<path fill-rule="evenodd" clip-rule="evenodd" fill="#004990" d="M177.9,81.7l0.4-1.8h0l0.4,1.8H177.9z M177.9,79.2l-1.2,4h0.8
			l0.2-0.8h1.2l0.2,0.8h0.8l-1.1-4H177.9z"/>
		<polygon fill="#004990" points="180.9,79.2 180.9,83.2 181.6,83.2 181.6,81.4 182.8,81.4 182.8,80.8 181.6,80.8 181.6,79.8 
			183,79.8 183,79.2 		"/>
		<path fill-rule="evenodd" clip-rule="evenodd" fill="#004990" d="M185,79.8h0.4c0.2,0,0.7,0,0.7,0.5c0,0.5-0.4,0.6-0.8,0.6H185
			V79.8 M184.3,79.2v4h0.8v-1.7h0.1c0.3,0,0.4,0,0.7,0.5l0.6,1.2h0.9l-0.5-1.1c0-0.1-0.2-0.4-0.3-0.5c-0.1-0.2-0.2-0.2-0.3-0.2v0
			c0.2-0.1,0.9-0.3,0.9-1.1c0-0.7-0.4-1-0.8-1.1c-0.3-0.1-0.6-0.1-0.6-0.1H184.3z"/>
		<rect x="188.3" y="79.2" fill="#004990" width="0.8" height="4"/>
		<path fill="#004990" d="M192.9,80.3c-0.1-0.4-0.3-1.2-1.3-1.2c-1.3,0-1.4,1.3-1.4,2.1c0,0.8,0.1,2.1,1.4,2.1
			c0.6,0,1.1-0.3,1.3-1.3l-0.7-0.2c0,0.3-0.1,0.8-0.6,0.8c-0.2,0-0.3-0.1-0.4-0.3c-0.1-0.2-0.1-0.4-0.1-1.2c0-0.6,0-1.4,0.6-1.4
			c0.4,0,0.5,0.5,0.5,0.7L192.9,80.3"/>
		<path fill-rule="evenodd" clip-rule="evenodd" fill="#004990" d="M194.8,81.7l0.4-1.8h0l0.4,1.8H194.8z M194.8,79.2l-1.2,4h0.8
			l0.2-0.8h1.2l0.2,0.8h0.8l-1.1-4H194.8z"/>
		<polygon fill="#004990" points="197.8,79.2 197.8,83.2 198.5,83.2 198.5,80.6 198.5,80.6 198.5,80.6 199.7,83.2 200.4,83.2 
			200.4,79.2 199.7,79.2 199.7,81.7 199.7,81.7 198.6,79.2 		"/>
		<path fill-rule="evenodd" clip-rule="evenodd" fill="#004990" d="M205.3,82.3c0.2,0.1,0.3,0.2,0.4,0.3c0,0-0.1,0-0.2,0
			c-0.6,0-0.7-0.8-0.7-1.2c0-0.3,0-0.9,0.1-1.1c0.1-0.3,0.4-0.5,0.6-0.5c0.7,0,0.7,0.9,0.7,1.3c0,0.3,0,0.8-0.1,1.1
			c-0.2-0.2-0.3-0.2-0.5-0.3L205.3,82.3 M206.6,82.7c0.3-0.3,0.3-1.1,0.3-1.5c0-1-0.2-2.1-1.5-2.1c-1.2,0-1.5,1-1.5,2
			c0,0.4,0,0.9,0.2,1.3c0.3,0.8,0.9,0.8,1.3,0.8c0.2,0,0.5,0,0.7-0.2c0.3,0.3,0.4,0.4,0.6,0.5l0.3-0.5
			C206.8,82.9,206.8,82.9,206.6,82.7L206.6,82.7z"/>
		<path fill="#004990" d="M208.1,79.2v2.5c0,0.3,0,0.7,0.2,1c0.3,0.6,0.9,0.6,1.2,0.6c0.9,0,1.3-0.5,1.3-1.5v-2.6H210v2.6
			c0,0.4,0,0.9-0.6,0.9c-0.6,0-0.6-0.5-0.6-0.9v-2.5H208.1"/>
		<path fill-rule="evenodd" clip-rule="evenodd" fill="#004990" d="M212.7,81.7l0.4-1.8h0l0.4,1.8H212.7z M212.7,79.2l-1.2,4h0.8
			l0.2-0.8h1.2l0.2,0.8h0.8l-1.1-4H212.7z"/>
		<polygon fill="#004990" points="215.7,79.2 215.7,83.2 218,83.2 218,82.5 216.4,82.5 216.4,79.2 		"/>
		<rect x="219" y="79.2" fill="#004990" width="0.8" height="4"/>
		<polygon fill="#004990" points="221.2,79.2 221.2,83.2 221.9,83.2 221.9,81.4 223,81.4 223,80.8 221.9,80.8 221.9,79.8 
			223.3,79.8 223.3,79.2 		"/>
		<rect x="224.5" y="79.2" fill="#004990" width="0.8" height="4"/>
		<path fill="#004990" d="M229.2,80.3c-0.1-0.4-0.3-1.2-1.3-1.2c-1.3,0-1.4,1.3-1.4,2.1c0,0.8,0.1,2.1,1.4,2.1
			c0.6,0,1.1-0.3,1.3-1.3l-0.7-0.2c0,0.3-0.1,0.8-0.6,0.8c-0.2,0-0.3-0.1-0.4-0.3c-0.1-0.2-0.1-0.4-0.1-1.2c0-0.6,0-1.4,0.6-1.4
			c0.4,0,0.5,0.5,0.5,0.7L229.2,80.3"/>
		<path fill-rule="evenodd" clip-rule="evenodd" fill="#004990" d="M231.1,81.7l0.4-1.8h0l0.4,1.8H231.1z M231.1,79.2l-1.2,4h0.8
			l0.2-0.8h1.2l0.2,0.8h0.8l-1.1-4H231.1z"/>
		<polygon fill="#004990" points="233.6,79.2 233.6,79.8 234.6,79.8 234.6,83.2 235.3,83.2 235.3,79.8 236.3,79.8 236.3,79.2 		"/>
		<rect x="237.3" y="79.2" fill="#004990" width="0.8" height="4"/>
		<path fill-rule="evenodd" clip-rule="evenodd" fill="#004990" d="M240.1,81.3c0-0.3,0-0.8,0.1-1.1c0.1-0.4,0.4-0.5,0.6-0.5
			c0.7,0,0.7,0.9,0.7,1.3c0,0.9-0.1,1.1-0.1,1.2c-0.1,0.2-0.3,0.3-0.5,0.3C240.1,82.6,240.1,81.7,240.1,81.3 M240.8,79.1
			c-1.2,0-1.5,1-1.5,2c0,1.3,0.4,2.1,1.5,2.1c1.5,0,1.5-1.5,1.5-2C242.2,80.3,242.1,79.1,240.8,79.1"/>
		<polygon fill="#004990" points="243.5,79.2 243.5,83.2 244.2,83.2 244.2,80.6 244.2,80.6 244.2,80.6 245.4,83.2 246.1,83.2 
			246.1,79.2 245.4,79.2 245.4,81.7 245.4,81.7 244.2,79.2 		"/>
		<path fill="#004990" d="M249.8,80.3c0-0.4-0.1-1.2-1.2-1.2c-0.8,0-1.2,0.5-1.2,1.1c0,0.7,0.5,1,0.9,1.2c0.5,0.2,0.8,0.4,0.8,0.8
			c0,0.2-0.1,0.5-0.5,0.5c-0.5,0-0.6-0.4-0.6-0.8l-0.8,0.1c0,0.4,0.1,1.4,1.3,1.4c0.9,0,1.3-0.6,1.3-1.2c0-0.6-0.4-0.9-1.1-1.3
			c-0.4-0.2-0.7-0.3-0.7-0.7c0-0.3,0.2-0.4,0.4-0.4c0.4,0,0.5,0.4,0.5,0.6L249.8,80.3"/>
		<path fill-rule="evenodd" clip-rule="evenodd" fill="#004990" d="M254.2,81.7l0.4-1.8h0l0.4,1.8H254.2z M254.2,79.2l-1.2,4h0.8
			l0.2-0.8h1.2l0.2,0.8h0.8l-1.1-4H254.2z"/>
		<path fill="#004990" d="M257.1,79.2v2.5c0,0.3,0,0.7,0.2,1c0.3,0.6,0.9,0.6,1.2,0.6c0.9,0,1.3-0.5,1.3-1.5v-2.6H259v2.6
			c0,0.4,0,0.9-0.6,0.9c-0.6,0-0.6-0.5-0.6-0.9v-2.5H257.1"/>
		<polygon fill="#004990" points="260.8,79.2 260.8,79.8 261.7,79.8 261.7,83.2 262.5,83.2 262.5,79.8 263.4,79.8 263.4,79.2 		"/>
		<polygon fill="#004990" points="264.5,79.2 264.5,83.2 265.2,83.2 265.2,81.4 266.3,81.4 266.3,83.2 267.1,83.2 267.1,79.2 
			266.3,79.2 266.3,80.7 265.2,80.7 265.2,79.2 		"/>
		<path fill-rule="evenodd" clip-rule="evenodd" fill="#004990" d="M269.1,81.3c0-0.3,0-0.8,0.1-1.1c0.1-0.4,0.4-0.5,0.6-0.5
			c0.7,0,0.7,0.9,0.7,1.3c0,0.9-0.1,1.1-0.1,1.2c-0.1,0.2-0.3,0.3-0.5,0.3C269.1,82.6,269.1,81.7,269.1,81.3 M269.8,79.1
			c-1.2,0-1.5,1-1.5,2c0,1.3,0.4,2.1,1.5,2.1c1.5,0,1.5-1.5,1.5-2C271.3,80.3,271.1,79.1,269.8,79.1"/>
		<path fill-rule="evenodd" clip-rule="evenodd" fill="#004990" d="M273.2,79.8h0.5c0.2,0,0.7,0,0.7,0.5c0,0.5-0.4,0.6-0.8,0.6h-0.4
			V79.8 M272.5,79.2v4h0.8v-1.7h0.1c0.3,0,0.4,0,0.7,0.5l0.6,1.2h0.9l-0.5-1.1c0-0.1-0.2-0.4-0.3-0.5c-0.1-0.2-0.2-0.2-0.3-0.2v0
			c0.2-0.1,0.9-0.3,0.9-1.1c0-0.7-0.4-1-0.8-1.1c-0.3-0.1-0.6-0.1-0.6-0.1H272.5z"/>
		<rect x="276.5" y="79.2" fill="#004990" width="0.8" height="4"/>
		<polygon fill="#004990" points="278.3,79.2 278.3,79.8 279.2,79.8 279.2,83.2 280,83.2 280,79.8 280.9,79.8 280.9,79.2 		"/>
		<polygon fill="#004990" points="281.6,79.2 282.8,81.5 282.8,83.2 283.5,83.2 283.5,81.5 284.7,79.2 283.8,79.2 283.2,80.8 
			282.5,79.2 		"/>
	</g>
</g>
</svg>
